<mxfile host="app.diagrams.net" agent="Mozilla/5.0 (Windows NT 10.0; Win64; x64) AppleWebKit/537.36 (KHTML, like Gecko) Chrome/133.0.0.0 Safari/537.36" version="26.0.5">
  <diagram name="Page-1" id="58cdce13-f638-feb5-8d6f-7d28b1aa9fa0">
    <mxGraphModel dx="2314" dy="1098" grid="1" gridSize="10" guides="1" tooltips="1" connect="1" arrows="1" fold="1" page="1" pageScale="1" pageWidth="1100" pageHeight="850" background="none" math="0" shadow="0">
      <root>
        <mxCell id="0" />
        <mxCell id="1" parent="0" />
        <mxCell id="zvjNbNc20dDJgvPCQ1Yk-8" value="&lt;u&gt;Attack&lt;/u&gt;&lt;div&gt;move to enemy&lt;/div&gt;" style="ellipse;whiteSpace=wrap;html=1;" vertex="1" parent="1">
          <mxGeometry x="500" y="80" width="120" height="80" as="geometry" />
        </mxCell>
        <mxCell id="zvjNbNc20dDJgvPCQ1Yk-9" value="&lt;u&gt;Fire&lt;/u&gt;&lt;div&gt;fire at enemy&lt;/div&gt;" style="ellipse;whiteSpace=wrap;html=1;" vertex="1" parent="1">
          <mxGeometry x="260" y="260" width="120" height="80" as="geometry" />
        </mxCell>
        <mxCell id="zvjNbNc20dDJgvPCQ1Yk-10" value="&lt;u&gt;Defense&lt;/u&gt;&lt;div&gt;move to safe space&lt;/div&gt;&lt;div&gt;using security map&lt;/div&gt;" style="ellipse;whiteSpace=wrap;html=1;" vertex="1" parent="1">
          <mxGeometry x="740" y="260" width="120" height="80" as="geometry" />
        </mxCell>
        <mxCell id="zvjNbNc20dDJgvPCQ1Yk-12" value="" style="endArrow=classic;html=1;rounded=0;exitX=0.017;exitY=0.625;exitDx=0;exitDy=0;exitPerimeter=0;entryX=0.333;entryY=0.025;entryDx=0;entryDy=0;entryPerimeter=0;" edge="1" parent="1" source="zvjNbNc20dDJgvPCQ1Yk-8" target="zvjNbNc20dDJgvPCQ1Yk-9">
          <mxGeometry width="50" height="50" relative="1" as="geometry">
            <mxPoint x="520" y="590" as="sourcePoint" />
            <mxPoint x="570" y="540" as="targetPoint" />
          </mxGeometry>
        </mxCell>
        <mxCell id="zvjNbNc20dDJgvPCQ1Yk-13" value="[Enemy in range]" style="edgeLabel;html=1;align=center;verticalAlign=middle;resizable=0;points=[];" vertex="1" connectable="0" parent="zvjNbNc20dDJgvPCQ1Yk-12">
          <mxGeometry x="0.1012" y="1" relative="1" as="geometry">
            <mxPoint as="offset" />
          </mxGeometry>
        </mxCell>
        <mxCell id="zvjNbNc20dDJgvPCQ1Yk-14" value="" style="endArrow=classic;html=1;rounded=0;entryX=0.225;entryY=0.9;entryDx=0;entryDy=0;entryPerimeter=0;" edge="1" parent="1" source="zvjNbNc20dDJgvPCQ1Yk-9" target="zvjNbNc20dDJgvPCQ1Yk-8">
          <mxGeometry width="50" height="50" relative="1" as="geometry">
            <mxPoint x="520" y="590" as="sourcePoint" />
            <mxPoint x="570" y="540" as="targetPoint" />
          </mxGeometry>
        </mxCell>
        <mxCell id="zvjNbNc20dDJgvPCQ1Yk-15" value="[Enemy not in range]" style="edgeLabel;html=1;align=center;verticalAlign=middle;resizable=0;points=[];" vertex="1" connectable="0" parent="zvjNbNc20dDJgvPCQ1Yk-14">
          <mxGeometry x="-0.2006" y="-3" relative="1" as="geometry">
            <mxPoint as="offset" />
          </mxGeometry>
        </mxCell>
        <mxCell id="zvjNbNc20dDJgvPCQ1Yk-16" value="" style="endArrow=classic;html=1;rounded=0;exitX=1;exitY=0.5;exitDx=0;exitDy=0;entryX=0;entryY=0.5;entryDx=0;entryDy=0;" edge="1" parent="1" source="zvjNbNc20dDJgvPCQ1Yk-9" target="zvjNbNc20dDJgvPCQ1Yk-10">
          <mxGeometry width="50" height="50" relative="1" as="geometry">
            <mxPoint x="520" y="590" as="sourcePoint" />
            <mxPoint x="570" y="540" as="targetPoint" />
          </mxGeometry>
        </mxCell>
        <mxCell id="zvjNbNc20dDJgvPCQ1Yk-17" value="[Health/Ammo below thresh}" style="edgeLabel;html=1;align=center;verticalAlign=middle;resizable=0;points=[];" vertex="1" connectable="0" parent="zvjNbNc20dDJgvPCQ1Yk-16">
          <mxGeometry x="0.0667" relative="1" as="geometry">
            <mxPoint as="offset" />
          </mxGeometry>
        </mxCell>
        <mxCell id="zvjNbNc20dDJgvPCQ1Yk-18" value="" style="endArrow=classic;html=1;rounded=0;exitX=1;exitY=1;exitDx=0;exitDy=0;entryX=0;entryY=0;entryDx=0;entryDy=0;" edge="1" parent="1" source="zvjNbNc20dDJgvPCQ1Yk-8" target="zvjNbNc20dDJgvPCQ1Yk-10">
          <mxGeometry width="50" height="50" relative="1" as="geometry">
            <mxPoint x="390" y="310" as="sourcePoint" />
            <mxPoint x="780" y="310" as="targetPoint" />
          </mxGeometry>
        </mxCell>
        <mxCell id="zvjNbNc20dDJgvPCQ1Yk-19" value="[Health/Ammo below thresh}" style="edgeLabel;html=1;align=center;verticalAlign=middle;resizable=0;points=[];" vertex="1" connectable="0" parent="zvjNbNc20dDJgvPCQ1Yk-18">
          <mxGeometry x="0.0667" relative="1" as="geometry">
            <mxPoint as="offset" />
          </mxGeometry>
        </mxCell>
        <mxCell id="zvjNbNc20dDJgvPCQ1Yk-20" value="" style="endArrow=classic;html=1;rounded=0;exitX=0.5;exitY=0;exitDx=0;exitDy=0;entryX=1;entryY=0.5;entryDx=0;entryDy=0;" edge="1" parent="1" source="zvjNbNc20dDJgvPCQ1Yk-10" target="zvjNbNc20dDJgvPCQ1Yk-8">
          <mxGeometry width="50" height="50" relative="1" as="geometry">
            <mxPoint x="520" y="590" as="sourcePoint" />
            <mxPoint x="570" y="540" as="targetPoint" />
          </mxGeometry>
        </mxCell>
        <mxCell id="zvjNbNc20dDJgvPCQ1Yk-21" value="[Replenished by support]" style="edgeLabel;html=1;align=center;verticalAlign=middle;resizable=0;points=[];" vertex="1" connectable="0" parent="zvjNbNc20dDJgvPCQ1Yk-20">
          <mxGeometry x="0.2198" y="2" relative="1" as="geometry">
            <mxPoint as="offset" />
          </mxGeometry>
        </mxCell>
        <mxCell id="zvjNbNc20dDJgvPCQ1Yk-25" style="edgeStyle=orthogonalEdgeStyle;rounded=0;orthogonalLoop=1;jettySize=auto;html=1;entryX=0;entryY=0.5;entryDx=0;entryDy=0;" edge="1" parent="1" source="zvjNbNc20dDJgvPCQ1Yk-22" target="zvjNbNc20dDJgvPCQ1Yk-23">
          <mxGeometry relative="1" as="geometry" />
        </mxCell>
        <mxCell id="zvjNbNc20dDJgvPCQ1Yk-26" value="[If fighter is low on supply]" style="edgeLabel;html=1;align=center;verticalAlign=middle;resizable=0;points=[];" vertex="1" connectable="0" parent="zvjNbNc20dDJgvPCQ1Yk-25">
          <mxGeometry x="0.0667" y="1" relative="1" as="geometry">
            <mxPoint as="offset" />
          </mxGeometry>
        </mxCell>
        <mxCell id="zvjNbNc20dDJgvPCQ1Yk-22" value="&lt;u&gt;Backup&lt;/u&gt;&lt;div&gt;stand near fighters&lt;/div&gt;" style="ellipse;whiteSpace=wrap;html=1;" vertex="1" parent="1">
          <mxGeometry x="260" y="510" width="120" height="80" as="geometry" />
        </mxCell>
        <mxCell id="zvjNbNc20dDJgvPCQ1Yk-27" style="edgeStyle=orthogonalEdgeStyle;rounded=0;orthogonalLoop=1;jettySize=auto;html=1;exitX=0;exitY=0;exitDx=0;exitDy=0;entryX=1;entryY=0;entryDx=0;entryDy=0;" edge="1" parent="1" source="zvjNbNc20dDJgvPCQ1Yk-23" target="zvjNbNc20dDJgvPCQ1Yk-22">
          <mxGeometry relative="1" as="geometry" />
        </mxCell>
        <mxCell id="zvjNbNc20dDJgvPCQ1Yk-28" value="[All fighters are good]" style="edgeLabel;html=1;align=center;verticalAlign=middle;resizable=0;points=[];" vertex="1" connectable="0" parent="zvjNbNc20dDJgvPCQ1Yk-27">
          <mxGeometry x="-0.0658" y="-2" relative="1" as="geometry">
            <mxPoint as="offset" />
          </mxGeometry>
        </mxCell>
        <mxCell id="zvjNbNc20dDJgvPCQ1Yk-23" value="&lt;u&gt;Help&lt;/u&gt;&lt;div&gt;move to fighter and help&lt;/div&gt;" style="ellipse;whiteSpace=wrap;html=1;" vertex="1" parent="1">
          <mxGeometry x="740" y="510" width="120" height="80" as="geometry" />
        </mxCell>
        <mxCell id="zvjNbNc20dDJgvPCQ1Yk-24" value="&lt;div&gt;&lt;u&gt;Restock&lt;/u&gt;&lt;/div&gt;&lt;div&gt;move to storage&lt;/div&gt;" style="ellipse;whiteSpace=wrap;html=1;" vertex="1" parent="1">
          <mxGeometry x="500" y="690" width="120" height="80" as="geometry" />
        </mxCell>
        <mxCell id="zvjNbNc20dDJgvPCQ1Yk-30" value="" style="endArrow=classic;html=1;rounded=0;exitX=1;exitY=1;exitDx=0;exitDy=0;entryX=0.3;entryY=0.088;entryDx=0;entryDy=0;entryPerimeter=0;" edge="1" parent="1" source="zvjNbNc20dDJgvPCQ1Yk-22" target="zvjNbNc20dDJgvPCQ1Yk-24">
          <mxGeometry width="50" height="50" relative="1" as="geometry">
            <mxPoint x="520" y="590" as="sourcePoint" />
            <mxPoint x="570" y="540" as="targetPoint" />
          </mxGeometry>
        </mxCell>
        <mxCell id="zvjNbNc20dDJgvPCQ1Yk-33" value="[Out of supplies]" style="edgeLabel;html=1;align=center;verticalAlign=middle;resizable=0;points=[];" vertex="1" connectable="0" parent="zvjNbNc20dDJgvPCQ1Yk-30">
          <mxGeometry x="-0.0299" y="-1" relative="1" as="geometry">
            <mxPoint as="offset" />
          </mxGeometry>
        </mxCell>
        <mxCell id="zvjNbNc20dDJgvPCQ1Yk-31" value="" style="endArrow=classic;html=1;rounded=0;exitX=0.5;exitY=1;exitDx=0;exitDy=0;entryX=1;entryY=0.5;entryDx=0;entryDy=0;" edge="1" parent="1" source="zvjNbNc20dDJgvPCQ1Yk-23" target="zvjNbNc20dDJgvPCQ1Yk-24">
          <mxGeometry width="50" height="50" relative="1" as="geometry">
            <mxPoint x="520" y="590" as="sourcePoint" />
            <mxPoint x="570" y="540" as="targetPoint" />
          </mxGeometry>
        </mxCell>
        <mxCell id="zvjNbNc20dDJgvPCQ1Yk-32" value="[Out of supplies]" style="edgeLabel;html=1;align=center;verticalAlign=middle;resizable=0;points=[];" vertex="1" connectable="0" parent="zvjNbNc20dDJgvPCQ1Yk-31">
          <mxGeometry x="-0.1048" y="-1" relative="1" as="geometry">
            <mxPoint as="offset" />
          </mxGeometry>
        </mxCell>
        <mxCell id="zvjNbNc20dDJgvPCQ1Yk-36" value="" style="endArrow=classic;html=1;rounded=0;exitX=0;exitY=0.5;exitDx=0;exitDy=0;entryX=0;entryY=1;entryDx=0;entryDy=0;" edge="1" parent="1" source="zvjNbNc20dDJgvPCQ1Yk-24" target="zvjNbNc20dDJgvPCQ1Yk-22">
          <mxGeometry width="50" height="50" relative="1" as="geometry">
            <mxPoint x="520" y="590" as="sourcePoint" />
            <mxPoint x="570" y="540" as="targetPoint" />
          </mxGeometry>
        </mxCell>
        <mxCell id="zvjNbNc20dDJgvPCQ1Yk-37" value="Text" style="edgeLabel;html=1;align=center;verticalAlign=middle;resizable=0;points=[];" vertex="1" connectable="0" parent="zvjNbNc20dDJgvPCQ1Yk-36">
          <mxGeometry x="0.2094" y="1" relative="1" as="geometry">
            <mxPoint x="25" y="21" as="offset" />
          </mxGeometry>
        </mxCell>
        <mxCell id="zvjNbNc20dDJgvPCQ1Yk-38" value="[Supplies replenished]" style="edgeLabel;html=1;align=center;verticalAlign=middle;resizable=0;points=[];" vertex="1" connectable="0" parent="zvjNbNc20dDJgvPCQ1Yk-36">
          <mxGeometry x="-0.0239" y="6" relative="1" as="geometry">
            <mxPoint as="offset" />
          </mxGeometry>
        </mxCell>
        <mxCell id="zvjNbNc20dDJgvPCQ1Yk-39" value="Fighter" style="swimlane;whiteSpace=wrap;html=1;" vertex="1" parent="1">
          <mxGeometry x="240" y="20" width="640" height="340" as="geometry" />
        </mxCell>
        <mxCell id="zvjNbNc20dDJgvPCQ1Yk-40" value="Support" style="swimlane;whiteSpace=wrap;html=1;" vertex="1" parent="1">
          <mxGeometry x="230" y="460" width="640" height="340" as="geometry" />
        </mxCell>
      </root>
    </mxGraphModel>
  </diagram>
</mxfile>
